<?xml version="1.0" encoding="UTF-8" standalone="no"?>
<!-- Created with Inkscape (http://www.inkscape.org/) -->

<svg
   xmlns:dc="http://purl.org/dc/elements/1.1/"
   xmlns:cc="http://creativecommons.org/ns#"
   xmlns:rdf="http://www.w3.org/1999/02/22-rdf-syntax-ns#"
   xmlns:svg="http://www.w3.org/2000/svg"
   xmlns="http://www.w3.org/2000/svg"
   xmlns:xlink="http://www.w3.org/1999/xlink"
   xmlns:sodipodi="http://sodipodi.sourceforge.net/DTD/sodipodi-0.dtd"
   xmlns:inkscape="http://www.inkscape.org/namespaces/inkscape"
   width="128"
   height="128"
   viewBox="0 0 33.866667 33.866667"
   version="1.1"
   id="svg8"
   inkscape:version="0.92.1 unknown"
   sodipodi:docname="tileableBackground.svg">
  <defs
     id="defs2" />
  <sodipodi:namedview
     id="base"
     pagecolor="#ffffff"
     bordercolor="#666666"
     borderopacity="1.0"
     inkscape:pageopacity="0.0"
     inkscape:pageshadow="2"
     inkscape:zoom="0.35355339"
     inkscape:cx="-6.5354148"
     inkscape:cy="42.443321"
     inkscape:document-units="mm"
     inkscape:current-layer="layer1"
     showgrid="true"
     showguides="true"
     inkscape:window-width="1366"
     inkscape:window-height="715"
     inkscape:window-x="0"
     inkscape:window-y="0"
     inkscape:window-maximized="1"
     inkscape:guide-bbox="true"
     units="px"
     width="256px">
    <sodipodi:guide
       position="275.59764,240.14301"
       orientation="1,0"
       id="guide7796"
       inkscape:locked="false" />
    <sodipodi:guide
       position="101.41335,256.46755"
       orientation="0,1"
       id="guide7798"
       inkscape:locked="false" />
    <sodipodi:guide
       position="439.83567,254.33439"
       orientation="1,0"
       id="guide7800"
       inkscape:locked="false" />
    <sodipodi:guide
       position="151.66208,80.955545"
       orientation="0,1"
       id="guide7802"
       inkscape:locked="false" />
    <inkscape:grid
       type="xygrid"
       id="grid7847" />
    <sodipodi:guide
       position="0,33.866667"
       orientation="0,1"
       id="guide7849"
       inkscape:locked="false" />
    <sodipodi:guide
       position="0,33.866667"
       orientation="1,0"
       id="guide7853"
       inkscape:locked="false" />
    <sodipodi:guide
       position="33.866667,0"
       orientation="0,1"
       id="guide7855"
       inkscape:locked="false" />
    <sodipodi:guide
       position="33.866667,0"
       orientation="1,0"
       id="guide7857"
       inkscape:locked="false" />
  </sodipodi:namedview>
  <metadata
     id="metadata5">
    <rdf:RDF>
      <cc:Work
         rdf:about="">
        <dc:format>image/svg+xml</dc:format>
        <dc:type
           rdf:resource="http://purl.org/dc/dcmitype/StillImage" />
        <dc:title></dc:title>
      </cc:Work>
    </rdf:RDF>
  </metadata>
  <g
     inkscape:label="Layer 1"
     inkscape:groupmode="layer"
     id="layer1"
     style="display:inline"
     transform="translate(0,-263.13333)">
    <path
       style="color:#000000;clip-rule:nonzero;display:inline;overflow:visible;visibility:visible;opacity:1;isolation:auto;mix-blend-mode:normal;color-interpolation:sRGB;color-interpolation-filters:linearRGB;solid-color:#000000;solid-opacity:1;fill:#f79d3d;fill-opacity:0.56505582;fill-rule:nonzero;stroke:none;stroke-width:0.37795275;stroke-linecap:butt;stroke-linejoin:miter;stroke-miterlimit:5.5999999;stroke-dasharray:0.37795276, 3.02362201;stroke-dashoffset:0;stroke-opacity:1;color-rendering:auto;image-rendering:auto;shape-rendering:auto;text-rendering:auto;enable-background:accumulate"
       d="m 367.54492,-187.12305 v 16.78125 l 1.90625,-1.66211 v -15.11914 z m -10.62304,21.05469 -9.56446,8.3457 5.84375,-0.10156 9.44727,-8.24414 z m 25.15039,0 -3.27149,2.82617 v 0.50391 l 3.81641,-3.33008 z m 27.68359,0 v 23.31055 l 11.25586,-0.19922 v -23.11133 z m 47.2832,0 -8.70703,7.52148 h 16.36328 v -7.52148 z m 18.91211,0 v 2.26758 l -5.65234,4.88281 v 11.3418 h 5.98242 v 0.58203 l 3.62305,-3.12891 v -15.94531 z m -83.22461,7.98047 -13.92578,12.0293 v 8.52148 h 1.90625 v -1.64844 l 12.01953,-10.38086 z m -47.13867,1.91016 -8.73047,7.61914 v 18.85156 l 11.25586,-9.72266 v -13.95508 l 0.92969,-0.81054 v -1.98242 z m 19.81836,4.50585 -1.22852,1.06055 v 14.48828 l -1.08593,0.9375 v 11.21485 l 4.45312,-3.84571 v -10.81054 h -2.13867 z m 44.34961,10.25196 v 0.25976 h 11.25586 v -0.25976 z m 0,2.79297 v 1.80468 l 1.22852,-0.0215 v 9.73047 l -1.22852,1.07226 v 3.72266 l 9.96094,-0.17383 1.29492,-1.11914 v -15.01562 z m 0,16.30859 -1.08594,0.0195 -23.58594,19.85742 h 11.41797 l 1.24219,-1.07226 v -2.90821 l 8.08203,-0.14257 v -2.29297 h 3.92969 v -3.29102 l -0.16992,0.004 v -1.59766 l 0.16992,-0.14648 z m -3.92969,15.75391 v 1.33007 H 409 v 2.79297 h 0.25586 v -2.79297 h 10.48437 v 7.080083 l 2.74415,-2.371093 v -6.33203 l -12.7168,0.22265 -0.0117,0.0117 v -0.01 l -0.5,0.008 v -1.08008 H 409 v 1.08399 z m -25.11914,-29.74805 -1.90625,0.0332 v 2.3418 l 1.90625,-1.66406 z m -58.98437,0.95898 -26.26758,22.92188 h -27.91406 v 34.673828 l 2.03515,-1.775391 v 10.849609 l 7.6875,-0.134765 1.06836,-0.931641 v 1.951172 l -0.92969,0.802734 v 15.359375 l 16.06446,-13.876953 v -4.570312 H 280.83203 V -76.5 h -5.57226 l 5.57226,-4.8125 v -17.183594 l 15.7207,-13.580076 v 2.70703 h 11.25586 v -6.67774 h -2.23828 v -0.21484 l 2.23828,-1.95312 v -3.58399 l 13.91407,-12.01758 z m -52.14649,66.669926 -1.08594,0.01953 -0.94921,0.798828 v 0.314453 h 2.03515 z m 109.22461,-64.749996 v 6.67773 h 1.90625 v -6.67773 z m 45.91992,0 v 11.75781 l -3.70898,3.23633 v 2.09375 l -8.66992,7.48828 h 10.14258 v -1.98242 l 3.3789,-2.91797 v 4.90039 h 7.87695 v -1.39063 l 3.37891,-2.91797 v -10.31445 l 0.58594,-0.50586 v -6.77734 l -2.0586,1.77734 v -4.44726 z m 19.14649,0 -2.98047,2.57421 h 4.77539 l 2.86914,-2.47851 h 6.63281 v -0.0957 z m -92.03125,7.9707 -3.37891,2.91797 v 11.2168 l 3.37891,-2.91797 z m -27.32032,6.41601 -0.64257,0.55469 v 2.70703 h 0.64257 z m 12.68555,6.22657 -1.42969,1.23437 v 0.25782 h 1.42969 z m 96.53906,5.76562 -7.87695,0.13867 v 7.292973 h -3.3789 v 0.08789 l -1.32227,1.113281 1.32227,-0.02344 v 12.054687 h -1.47266 v 5.597656 h -8.33008 l 6.48047,-5.597656 h -0.47461 l -11.13281,9.617187 v -1.990234 l -1.72852,1.492188 v 3.583984 l -0.25586,0.222656 v -1.677734 h -11.25586 v 5.058594 h 0.67774 l -0.67774,0.570312 v 2.185547 l -4.16406,3.595703 7.25,-0.126953 v -6.224609 h 5.65234 v 4.447265 l 2.51758,-2.173828 v -3.708984 h 0.25586 v 3.486328 l 2.375,-2.050781 h 0.45508 v 6.027343 l 0.25586,-0.0039 v -6.023437 h 13.6582 v 1.05664 h 2.15039 V -76.5 h 5.65235 v 3.732422 l 7.33203,-6.398438 v -6.46875 l -2.83008,2.445313 v -3.201172 h -1.13477 z m -39.57421,6.63086 -11.72266,0.20508 -0.26367,0.222656 v 1.177735 h 10.1289 z m -45.70899,5.410158 -0.0254,0.02148 h 0.0254 z m 3.95313,7.542969 v 5.933594 l 6.86914,-5.933594 z m 123.87109,1.080078 v 3.082031 l 3.36719,-2.908203 v -0.173828 z m -11.58594,0.695313 -13.66211,11.800781 V -61.5 l 13.66211,-11.800781 v -6.697266 h 0.33008 v -5.060547 l -0.33008,0.277344 z m -156.54297,4.035156 -7.71875,6.498047 4.28907,-0.07422 v 19.085937 h 7.60351 V -76.5 h -4.17383 z m 41.53321,4.966797 -0.84766,0.732421 h -0.43164 v 0.81836 h -2.00781 v 1.289062 l -25.39063,21.929688 4.15235,-0.07227 -7.23438,6.091797 v -3.355469 l -5.59961,4.835938 v -9.539063 l -7.60351,6.56836 v 8.283203 l 3.42968,-0.06055 v 1.390625 h -3.42968 v -1.330078 l -9.78907,0.171875 -15.53125,13.414062 v 5.22461 h -4.36914 v 4.986328 h 2.87891 l 1.49023,-1.255859 v 0.585937 l -0.77539,0.669922 h 0.77539 15.58789 5.03125 l 6.42969,-5.414063 v 16.5859379 l 5.875,-4.9472657 V -15.31446 h 1.14844 1.44336 4.23633 v -3.826172 h 5.11132 l 9.50586,-8.003906 v 8.003906 H 335 v -14.134766 l -10.48438,9.056641 v -9.617188 h 11.25586 v 4.447266 l 5.14844,-4.447266 h 4.10742 v -7.568359 l 3.42969,-2.992187 v 9.410156 l 3.37891,-2.845703 v -2.419922 h 2.875 l 0.46679,-0.392578 v 0.392578 h 7.91407 v 4.447265 l 5.14843,-4.447265 h 5.33594 v 0.07617 l 8.10352,-7 v 4.304687 l 14.41406,-12.578125 v -3.5 h -4.29687 v -3.3125 h -3.34766 l -0.60156,0.519531 h -9.3418 v 3.316407 H 378.25 v -3.316407 h -0.66016 l -10.04492,8.457032 v -15.441406 h -0.55078 v 7.814453 l -6.4668,5.585937 h -10.84179 v -3.623047 h -1.22852 l 1.22852,-1.060547 v -2.882812 l 6.68554,-5.833984 h -6.68554 z M 419.11719,-76.5 h 3.19531 l -3.19531,2.689453 z m -35.64844,1.357422 -1.28906,1.113281 v 0.205078 l 1.51172,-1.318359 z m -77.01758,4.923828 v 0.888672 l -1.05078,0.01758 z m 104.77735,11.269531 v 7.716797 l 8.8457,-7.716797 z m 22.51171,12.345703 -11.25585,9.722657 v 0.04102 l 11.25585,-9.722656 z m -71.41992,6.91211 -7.14258,6.169922 v 7.964843 h 6.66016 l 0.48242,-0.421875 z m -41.18359,1.710937 v 15.0625 l 1.91211,-0.0332 -1.91211,1.650391 v -1.617188 l -3.42969,0.06055 v -12.130859 z m 139.92187,3.517578 -11.84179,10.228516 v 7.585937 h -0.25586 v -7.365234 l -10.91211,9.425781 v 10.8183598 l 6.74609,-5.828125 v -2.9082028 l 8.08203,-0.142579 v -2.292968 h 4.94727 l 18.45703,-16.105469 v -0.820313 l -4.50977,0.07813 v 4.029296 l -10.83593,9.455078 -4.29883,0.07617 v -1.597656 l 3.75,-3.238281 h -6.64649 l 10.19922,-8.585938 1.08594,-0.01953 v -2.792969 z m 3.9668,2.792969 v 4.597656 l 5.19531,-4.486328 v -0.203125 z m 11.25586,-0.197266 0.25586,-0.0039 v 0.59961 l 3.36719,-2.9375 v -0.253907 h -3.62305 z m -23.4043,19.21875 v 1.330079 h 0.79493 l 1.57226,-1.373047 z m -30.39257,-21.386718 v 4.855468 h 1.51171 l -1.51171,1.31836 v 10.449219 2.470703 h 8.85546 l -18.68945,16.3085935 2.97656,-0.050781 6.85743,-5.984375 v 3.5234376 l -2.76563,2.3886718 10.55664,-0.1855468 v 1.8847656 l 4.34375,-3.75195315 V -11.626953 l -0.87891,0.759765 v -5.78125 h -7.32031 l 7.32031,-6.162109 v -11.224609 z m -76.08594,4.738281 -0.14258,0.002 v 5.470703 l -1.22852,1.060547 h 1.22852 v 1.501953 l 0.14258,-0.123047 z m -27.08203,9.570313 -0.16211,0.138671 v -0.136718 z m -48.69336,1.785156 -2.88282,2.492187 v 0.134766 h 2.88282 z m 209.28125,0.720703 -2.63868,2.279297 h 2.63868 z m -23.85352,3.431641 v 0.394531 l 0.25586,-0.222657 v -0.171874 z m 23.85352,0.666015 -4.8418,0.08594 -4.98242,4.302734 V 10.439453 L 468.85156,11.5 h 1.22852 v 3.623047 h 5.27344 v 1.203125 l 4.55078,-0.08008 z m -4.55078,29.449219 -11.25586,0.197266 v 1.132812 h -2.40821 l 1.32227,-1.113281 1.08594,-0.01953 v -2.490235 h -5.27344 v -2.525391 l -5.94727,5.136719 v 3.583985 l -0.25586,0.222656 v -1.677734 h -11.25586 v 7.814453 l -3.3164,2.865234 v 8.667969 h 25.46094 l 10.96679,-9.570313 h -8.30859 v -3.662109 h 5.60351 v -7.472656 h 3.58204 z M 401.22656,-8.6054688 V 1.5683594 l 5.48633,-0.095703 v -6.5566406 l 0.58594,-0.5058594 v -3.015625 z m 0,10.1738282 -11.25586,0.1972656 v 1.1328125 h -2.4082 l 1.32227,-1.1132813 1.08593,-0.019531 V 0.51171875 l -6.49218,5.66406245 -1.38282,0.025391 -13.32226,11.2148438 h -13.57032 v -0.441407 l -0.0254,0.02148 v 29.835937 h 8.28711 l 43.834,-38.2499948 V 6.0371094 l -0.58594,0.5117187 V 2.8984375 h -5.48633 z M 355.17773,46.832031 h -3.40429 v 1.759766 l 1.91797,-0.0332 v -0.882813 h 1.48632 z m -1.48632,1.726563 v 6.21289 l 1.48632,-0.02734 v -6.740235 l -0.63867,0.539063 z m 57.03711,-57.1640628 v 0.052734 l 0.0605,-0.052734 z m 0.16796,11.5039063 -0.16796,0.1464844 V 5.5898438 L 413.8125,2.8984375 Z M 395.45703,4.6386719 V 18.773438 h -3.37891 V 7.5566406 Z m 19.68359,0.5605469 -4.4121,3.8105468 v 2.6230464 l -3.09961,0.05469 -30.60352,26.433594 h 24.20117 v -1.507813 h -2.23828 V 36.39844 l 2.23828,-1.953126 V 30.86133 l 6.07227,-5.24414 v -2.789063 l 3.42969,-2.962891 v 2.789063 l 4.4121,-3.810547 z m -92.88671,10.6523432 -8.7793,7.390626 v 11.314453 l 8.7793,-7.660157 z m 22.6582,0.31836 v 2.628906 l 1.48633,-0.02539 v -2.603516 z m 35.91016,1.111328 v 0.888672 l -1.05079,0.01758 z m 85.3457,0.134766 h 3.19531 l -3.19531,2.689453 z m 11.25586,0.240234 v 4.207031 l 2.48047,-2.142578 V 17.65625 Z m -64.62305,0.382812 v 0.734376 h -0.84961 z m 17.47461,0.734376 v 0.408203 l 0.4668,-0.408203 z m 22.3457,3.623046 h 0.25586 v 6.677735 h -0.25586 z m -130.36718,6.423828 -8.7793,7.582032 v 10.429687 h 8.7793 z m 18.26367,0.839844 -6.45899,5.578125 v 11.59375 h 4.65625 l 1.80274,-1.558593 z m 88.67187,2.513672 v 5.947266 h 5.42969 v -5.947266 z m -11.25586,1.439453 -3.3789,2.917969 v 1.589844 h 3.3789 z m -145.46093,7.5625 -4.93164,4.152344 v 1.503906 h 3.08203 v -1.767578 l 3.66797,-3.167969 h -1.81836 z m 6.92968,0.720703 v 4.935547 h 5.97266 l 5.71484,-4.935547 z m 74.28907,14.238282 v 12.998046 l 1.48632,-1.283203 V 56.134766 Z"
       transform="scale(0.26458333)"
       id="rect7388"
       inkscape:connector-curvature="0" />
    <use
       x="0"
       y="0"
       inkscape:tiled-clone-of="#rect7388"
       xlink:href="#rect7388"
       id="use7390"
       transform="translate(-50.362523,90.042082)"
       width="100%"
       height="100%" />
    <use
       x="0"
       y="0"
       inkscape:tiled-clone-of="#rect7388"
       xlink:href="#rect7388"
       transform="translate(-50.362523,144.06733)"
       id="use7392"
       width="100%"
       height="100%" />
    <use
       x="0"
       y="0"
       inkscape:tiled-clone-of="#rect7388"
       xlink:href="#rect7388"
       transform="translate(-50.362523,198.09258)"
       id="use7394"
       width="100%"
       height="100%" />
    <use
       x="0"
       y="0"
       inkscape:tiled-clone-of="#rect7388"
       xlink:href="#rect7388"
       transform="translate(3.6627254,90.042086)"
       id="use7396"
       width="100%"
       height="100%" />
    <use
       x="0"
       y="0"
       inkscape:tiled-clone-of="#rect7388"
       xlink:href="#rect7388"
       transform="translate(3.6627254,144.06733)"
       id="use7398"
       width="100%"
       height="100%" />
    <use
       x="0"
       y="0"
       inkscape:tiled-clone-of="#rect7388"
       xlink:href="#rect7388"
       transform="translate(3.6627254,198.09258)"
       id="use7400"
       width="100%"
       height="100%" />
    <use
       x="0"
       y="0"
       inkscape:tiled-clone-of="#rect7388"
       xlink:href="#rect7388"
       transform="translate(57.687976,90.042086)"
       id="use7402"
       width="100%"
       height="100%" />
    <use
       x="0"
       y="0"
       inkscape:tiled-clone-of="#rect7388"
       xlink:href="#rect7388"
       transform="translate(57.687976,144.06733)"
       id="use7404"
       width="100%"
       height="100%" />
    <use
       x="0"
       y="0"
       inkscape:tiled-clone-of="#rect7388"
       xlink:href="#rect7388"
       transform="translate(57.687976,198.09258)"
       id="use7406"
       width="100%"
       height="100%" />
    <rect
       style="color:#000000;clip-rule:nonzero;display:inline;overflow:visible;visibility:visible;opacity:1;isolation:auto;mix-blend-mode:normal;color-interpolation:sRGB;color-interpolation-filters:linearRGB;solid-color:#000000;solid-opacity:1;fill:none;fill-opacity:0.9825175;fill-rule:nonzero;stroke:#000000;stroke-width:0.1;stroke-linecap:butt;stroke-linejoin:miter;stroke-miterlimit:5.5999999;stroke-dasharray:none;stroke-dashoffset:0;stroke-opacity:1;color-rendering:auto;image-rendering:auto;shape-rendering:auto;text-rendering:auto;enable-background:accumulate"
       id="rect7416"
       width="54.025249"
       height="54.025249"
       x="76.612274"
       y="100.12841" />
    <path
       style="color:#000000;clip-rule:nonzero;display:inline;overflow:visible;visibility:visible;opacity:1;isolation:auto;mix-blend-mode:normal;color-interpolation:sRGB;color-interpolation-filters:linearRGB;solid-color:#000000;solid-opacity:1;fill:#f79d3d;fill-opacity:0.56505582;fill-rule:nonzero;stroke:none;stroke-width:0.1;stroke-linecap:butt;stroke-linejoin:miter;stroke-miterlimit:5.5999999;stroke-dasharray:0.1, 0.79999998;stroke-dashoffset:0;stroke-opacity:1;color-rendering:auto;image-rendering:auto;shape-rendering:auto;text-rendering:auto;enable-background:accumulate"
       d="m 179.03506,-70.450995 -3.01945,2.608109 v 6.312276 h 6.35775 l -10.22987,8.926586 v 3.904671 h 0.57982 l 3.99562,-3.451469 v 3.451469 h 1.39526 v 0.658876 l 2.97811,-0.05219 v -0.318325 h -1.39526 v -0.958599 H 179.372 l 0.32504,-0.280604 v -5.073073 l 5.487,-4.739764 v -2.067573 h 2.97812 v 0.443899 l 0.0677,-0.05891 v -0.948264 l 3.68143,-3.179649 v -4.218866 h -3.68143 v -0.351917 l -2.97811,0.05219 v 0.299723 h -0.63717 l 0.34985,-0.294555 0.28732,-0.0052 v -0.658873 z m 9.19479,0.606679 7.68584,-0.134874 v 6.319509 l 2.97811,-2.572451 v -4.218863 h -10.66395 z m -7.13755,21.751644 v 0.351917 h 3.68143 v 4.218864 l -3.59409,3.104202 v 0.422714 l 1.1374,-0.02015 2.867,-2.501656 v -5.647717 z m -2.97811,0.05219 -0.28732,0.0052 -0.34985,0.294555 h 0.63717 z m -16.63464,-18.156515 -2.97811,2.598808 v 11.653036 l 2.97811,-0.05219 z m 0,14.19965 v 0.351917 h 3.68143 v 4.218863 l -3.68143,3.179651 v 0.948262 l -0.59222,0.516765 v 0.05684 h 0.59222 v 1.766819 h -2.97811 v -0.716238 l -4.15944,3.593064 v 7.51737 h 3.59048 l 10.94558,-9.21494 v -6.312276 l 0.28732,-0.248047 v -5.79293 z m -2.97811,0.05219 -0.28733,0.0052 -0.34985,0.294556 h 0.63718 z m 14.53606,-13.325287 -0.89401,0.772046 v 2.967779 h 0.89401 z m -3.87212,3.345016 -0.45733,0.394809 h 0.45733 z m 18.99678,1.353407 v 1.766816 h 0.0677 v -1.766816 z m -33.66513,0.468188 -9.62835,8.401553 v 0.05685 h 0.43356 l 9.19479,-7.942151 z m 33.66513,10.734228 v 0.670243 h 3.59409 v 0.447519 l 1.28106,-1.117762 z m 7.68583,0 v 9.116756 l 2.97811,-0.05219 v -6.339149 h -2.1363 l 2.04535,-1.766816 h 0.0909 v -0.958599 z m -10.66395,0.536401 -0.15916,0.133842 h 0.15916 z m 3.5941,0.605649 -0.61598,0.01085 v 3.101104 l 0.61598,-0.537437 z m -22.87819,4.708755 v 3.739825 h -0.894 v -2.967778 z m -3.87212,3.345016 v 0.394809 h -0.45733 z m 36.79827,0.294556 -2.97811,2.572453 v 18.604032 l 2.97811,-0.05219 v -15.517915 h -0.40204 l 0.40204,-0.347266 z m 0,21.124291 v 2.329057 h 0.0677 v -2.33009 z m -2.97811,0.05219 -0.28732,0.0052 -2.69854,2.271696 h 2.98586 z m -26.68261,-21.076232 v 2.229837 l -1.19476,1.031979 v 3.077848 l 6.51588,-5.685958 h -2.34301 v -0.653706 z m 11.01948,0.653706 v 0.606682 l 0.83975,-0.01499 v -0.286806 h 0.0677 v 0.285771 l 6.7784,-0.118856 v 6.319512 l 2.97811,-2.572453 v -4.218864 z m 0,0.606682 -2.13837,0.03772 v 0.769461 l -5.487,4.739762 v 2.766757 h 1.76889 l -1.76889,1.543575 v 0.762744 l -0.32504,0.280603 h 0.32504 v 0.958597 h 2.86856 l 1.71101,-1.477945 v -2.067574 h 2.97811 v 0.4439 l 0.0677,-0.05891 v -0.948262 l 3.68143,-3.179651 v -4.218863 h -2.77399 v 1.113109 h -0.0677 v -1.113109 h -0.83975 z m -30.21624,4.214729 -4.32945,3.739823 h 4.32945 z m 15.02389,0.359151 -0.894,0.772046 v 2.967778 h 0.894 z m -13.62863,0.880567 -0.90743,0.791683 v 11.653035 l 2.97811,-0.05219 v -9.558073 l -2.07068,0.03617 v 0.299724 h -0.63717 l 0.34986,-0.294556 0.28731,-0.0052 z m 2.07068,12.392525 v 0.351916 h 0.90744 v -0.367936 z m -2.97811,0.05219 -0.28732,0.0052 -0.34985,0.294555 h 0.63717 z m 10.66394,-9.980269 -0.27801,0.239778 0.27801,-0.0047 z m 22.58106,0.03566 v 0.711585 l 0.84542,-0.711585 z m 1.48259,0 v 1.977141 h -1.48259 v 0.968933 h 2.19831 l -4.87515,4.254004 v -1.138949 l -2.97812,2.572453 v 1.165303 l -2.867,2.501656 -1.1374,0.02015 v -0.22841 l -1.60507,1.386479 h -0.78497 v -0.958598 h -0.32504 l 0.32504,-0.280603 v -2.648934 h -1.4118 l -1.36219,1.176673 v -1.176673 h -2.97811 v 2.544548 l 2.77399,-2.396236 v 3.739823 h -4.19251 v 1.086239 l -0.38292,0.330729 v 7.1577023 l 0.40773,-0.00723 0.34106,-0.2945559 h 0.14521 v -2.5869224 h 2.97811 v 1.176672 l 1.3622,-1.176672 h 3.80183 v 2.7300662 l 1.1374,-0.020154 2.86701,-2.5016562 v -5.234823 h 2.97811 v 2.636015 l 4.87515,-4.254004 h -2.759 l 6.47712,-5.595007 v -3.979085 h 2.97812 v 0.958597 h -0.0909 l -2.04536,1.766818 h 0.60978 l 1.68155,-1.452625 v -4.218864 h -3.61373 v 1.977141 h -0.0677 v -1.977141 h -0.12041 l -1.36219,1.176673 v -1.176673 z m -21.08553,22.0534343 -2.97812,0.052193 v 4.1527179 l 2.4536,-2.1192503 V -7.045577 h -0.77204 l 1.29656,-1.1198283 z m -2.97812,0.052193 v -9.0469923 l -7.68583,6.470922 v 1.4019818 h -1.66553 l -0.9741,0.8201048 h -2.11719 l -3.77599,3.2618164 v 6.31227614 h 4.98574 l 10.94559,-9.21494124 z m 8.46099,-21.9407793 -0.22479,0.194304 h 0.22479 z m 10.53579,1.152902 v 1.766817 h 0.0677 v -1.766817 z m -33.66513,0.468188 -9.62835,8.401554 v 0.05684 h 0.43356 l 9.19479,-7.94215 z m 18.55391,6.708118 -0.90744,0.791682 v 3.209623 l 0.90744,-0.01602 z m 0,3.985286 v 0.427881 l 0.50591,-0.436666 z m -18.22318,-3.093351 -1.91409,0.03359 v 1.578199 z m 41.02023,3.134175 v 9.1167561 l 0.90744,-0.01602 v -6.3753221 h -0.0656 l 0.0656,-0.05684 v -0.179834 l 2.07119,-1.789038 v -0.699699 z m -23.27868,0.803569 -0.0429,5.17e-4 v 0.03617 z m 24.18612,10.475329 -0.90744,0.7839313 V 3.576009 l 0.62012,-0.5219319 0.28732,-0.00517 z m 0,9.8138712 V 5.3257729 H 187.803 v 7.2972291 l 2.97812,-0.05219 V 3.0127359 Z m 2.07068,9.5218998 v 2.329056 h 0.0677 v -2.33009 z m -2.97812,0.05219 -0.28732,0.0052 -2.69854,2.271695 h 2.98586 z m -45.87936,-15.601115 -4.14962,3.58479398 1.8712,-0.0330729 -0.22324,0.18810207 h 2.50166 z m -4.19251,3.62148428 -0.13695,0.11833886 h 0.13695 z m 26.20873,0.11833886 -2.04535,1.76681736 h 2.204 V 0.76171044 Z m 14.56655,0 -1.36735,1.18080656 v 0.7963337 h -0.92191 l -0.56069,0.4847251 V 4.5108356 L 163.62877,14.899865 h 8.68629 L 183.7986,4.9805745 V 0.76171044 h -3.61374 V 2.7388507 h -0.0677 V 0.76171044 h -0.12041 L 178.63457,1.9383829 V 0.76171044 Z m -39.76863,9.38599086 -1.91409,0.03359 v 1.578198 z"
       id="rect7388-5"
       inkscape:connector-curvature="0" />
    <path
       style="color:#000000;clip-rule:nonzero;display:inline;overflow:visible;visibility:visible;opacity:1;isolation:auto;mix-blend-mode:normal;color-interpolation:sRGB;color-interpolation-filters:linearRGB;solid-color:#000000;solid-opacity:1;fill:#f79d3d;fill-opacity:0.56505582;fill-rule:nonzero;stroke:none;stroke-width:0.06268603;stroke-linecap:butt;stroke-linejoin:miter;stroke-miterlimit:5.5999999;stroke-dasharray:0.06268605, 0.50148821;stroke-dashoffset:0;stroke-opacity:1;color-rendering:auto;image-rendering:auto;shape-rendering:auto;text-rendering:auto;enable-background:accumulate"
       d="m 6.2628063,263.13402 v 1.44443 H 7.718916 v -1.44443 z m 3.4140263,0 v 1.44443 h 0.7722904 l 0.298994,-0.25851 v -1.18592 z m 3.5024804,0 v 0.25235 l -1.296736,1.1315 0.969229,-0.017 0.327507,-0.28571 v 0.36279 H 12.61501 v 0.29188 l 0.318118,-0.006 v -0.14641 h 0.246517 v -0.13995 h 1.374157 l 1.655041,-1.44409 z m 4.461028,0 -0.542608,0.46875 v 0.0837 l 0.632984,-0.55232 z m 4.591577,0 v 3.86617 l 1.866894,-0.0331 v -3.83311 z m 7.842348,0 -1.444135,1.24747 h 2.714003 v -1.24747 z m 3.136743,0 v 0.37609 l -0.937485,0.80983 v 1.88108 h 0.992235 v 0.0967 l 0.600908,-0.51892 v -2.64462 z m -32.59940368,0.62584 v 0.81859 H 1.6022156 l 0.947868,-0.81859 z m 18.79584868,0.69775 -2.309721,1.99513 v 1.41332 h 0.316177 v -0.27341 l 1.993544,-1.7217 z m -6.227809,0.3152 -0.105935,0.0895 -0.140582,0.003 v 1.03043 l 0.246517,-0.005 z m -1.590573,0.002 -1.448017,1.26367 v 3.12662 l 1.866877,-1.61256 v -2.31452 l 0.154201,-0.13442 v -0.32879 z m 3.287061,0.74732 -0.203758,0.17589 v 2.40295 l -0.180122,0.15549 v 1.86002 l 0.738603,-0.6378 v -1.793 h -0.354723 z m -1.943005,0.59961 v 2.15578 l 0.246517,-0.21284 v -1.94294 z m 9.29879,1.10073 v 0.0427 h 1.866894 v -0.0427 z m 1.866894,0.46289 -1.866894,3.3e-4 v 0.29932 l 0.203757,-0.004 v 1.61384 l -0.203757,0.17784 v 0.61741 l 1.652105,-0.029 0.214789,-0.18562 z m -6.684902,0.38418 -0.316177,0.006 v 0.38839 l 0.316177,-0.27598 z m -9.7830984,0.15902 -4.3567199,3.80171 H 0 v 5.89397 l 0.84873417,-0.73305 v -2.84998 l 2.60742103,-2.25276 v 0.4493 h 1.8668766 v -1.10754 H 4.951806 v -0.0353 l 0.3712258,-0.3239 v -0.59444 l 2.3077798,-1.99317 z m 9.4669214,0.31847 v 1.10753 h 0.316177 v -1.10753 z m 7.616232,0 v 1.95007 l -0.615153,0.53678 v 0.34724 l -1.437999,1.24197 h 1.682241 v -0.32879 l 0.560422,-0.48396 v 0.81275 h 1.306473 v -0.23063 l 0.56042,-0.48397 v -1.71069 l 0.09718,-0.0839 v -1.12406 l -0.341439,0.29479 v -0.73761 z m 3.175621,0 -0.494326,0.42694 h 0.792043 l 0.475867,-0.41107 h 1.10011 v -0.0159 z m -15.26421,1.32197 -0.560421,0.48397 v 1.86036 l 0.560421,-0.48398 z m 9.606542,0.52153 -0.180107,0.003 -3.911951,3.29343 h 1.893778 l 0.206031,-0.17783 v -0.48234 l 1.340472,-0.0237 v -0.3803 h 0.651777 v -0.54585 l -0.02818,6.3e-4 v -0.26498 l 0.02818,-0.0242 z m -0.651777,2.61255 v 0.2206 h 0.526403 v 0.46321 h 0.04244 v -0.46321 h 1.738933 v 1.17426 l 0.455134,-0.39325 v -1.05022 l -2.109197,0.037 -0.002,0.002 v -0.002 l -0.08292,9.2e-4 v -0.17914 h -0.04245 v 0.1798 z m -13.4860849,-2.06995 -0.1065812,0.092 v 0.44899 h 0.1065812 z m 2.1040059,1.0327 -0.2371295,0.20473 v 0.0427 h 0.2371295 z m 22.312906,0.0645 v 5.75081 l 0.337557,-0.29447 v 1.79945 l 1.018142,-0.0181 v -1.27848 h -0.07547 l 0.07547,-0.065 v -5.89398 z m 0.337557,7.25579 -0.180123,0.003 -0.157434,0.13248 v 0.0521 h 0.337557 z m -6.638576,-6.364 -1.306473,0.023 v 1.20955 h -0.560422 v 0.0145 l -0.219298,0.18465 0.219298,-0.004 v 1.99932 h -0.244242 v 0.92839 h -1.381624 l 1.07485,-0.92839 h -0.07875 l -1.846475,1.59507 v -0.3301 l -0.286687,0.24748 v 0.59442 l -0.04243,0.037 v -0.27836 h -1.86689 v 0.83897 h 0.112403 l -0.112403,0.0946 v 0.36247 l -0.690653,0.59636 1.202477,-0.021 v -1.0324 h 0.937504 v 0.7376 l 0.417565,-0.36053 v -0.61514 h 0.04243 v 0.57821 l 0.393915,-0.34014 h 0.07548 v 0.99968 l 0.04245,-6.2e-4 v -0.99904 h 2.265337 v 0.17526 h 0.356648 v -1.23937 h 0.9375 v 0.61903 l 1.216079,-1.06121 v -1.07287 l -0.469398,0.40557 v -0.53094 h -0.188199 z m -6.56374,1.09975 -1.944318,0.034 -0.04374,0.0371 v 0.19533 h 1.67997 z m -7.581254,0.8973 -0.0045,0.004 h 0.0045 z m 0.655657,1.25103 v 0.98412 l 1.139302,-0.98412 z m 18.623522,0.29447 -2.266001,1.9572 v 2.05568 l 2.266001,-1.95721 v -1.11076 h 0.05474 v -0.83929 l -0.05474,0.0459 z m -25.9640798,0.66924 -1.2802332,1.07773 0.7113863,-0.0123 v 3.16548 H 6.072317 v -3.37507 H 5.3800542 Z m 6.8886578,0.82379 -0.140599,0.12146 h -0.07159 v 0.13573 H 11.72351 v 0.21379 l -4.2112613,3.63713 0.6886971,-0.0119 -1.1998909,1.01035 v -0.55651 l -0.9287444,0.80207 v -1.58211 l -1.2611097,1.0894 v 1.37381 l 0.5688468,-0.01 v 0.23064 H 4.8112055 v -0.2206 l -1.6236112,0.0287 -2.57599082,2.22476 v 0.86655 H 0 v 0.82699 h 0.36444214 l 0.24716318,-0.20837 v 0.0973 l -0.1286072,0.11109 h 0.1286072 2.58539498 0.8344703 l 1.0664241,-0.89794 v 2.75086 l 0.9744223,-0.82053 v -1.03239 h 0.1904893 0.239384 0.7026293 v -0.63458 h 0.8477723 l 1.5766231,-1.32747 v 1.32747 h 0.2037579 v -2.34431 l -1.7389168,1.50208 v -1.59505 h 1.8668764 v 0.7376 l 0.8539265,-0.7376 h 0.681249 v -1.25524 l 0.568847,-0.49627 v 1.56071 l 0.560421,-0.47197 V 284.002 h 0.476845 l 0.07742,-0.0652 v 0.065 h 1.312608 v 0.73762 l 0.853926,-0.73762 h 0.885007 v 0.0126 l 1.344039,-1.16098 v 0.71396 l 2.390709,-2.08615 v -0.58049 h -0.712679 v -0.54941 h -0.55523 l -0.09978,0.0863 h -1.549424 v 0.55002 h -0.04245 v -0.55002 h -0.109484 l -1.666037,1.40263 v -2.56103 h -0.09137 v 1.29607 l -1.072579,0.92644 h -1.798208 v -0.60089 h -0.203753 l 0.203758,-0.1759 v -0.47812 l 1.108852,-0.9676 H 12.268693 Z M 0,277.98933 v 1.27857 l 0.2568828,-0.005 0.1772039,-0.1545 v 0.32361 l -0.15419913,0.13314 v 2.54708 l 2.66442653,-2.30136 v -0.75769 H 0.84873417 v -1.06412 z m 23.784573,3.4e-4 h 0.529971 l -0.529971,0.44606 z m -5.912609,0.22515 -0.21381,0.18462 v 0.034 l 0.250747,-0.21866 z m -12.7740693,0.81663 v 0.14738 l -0.1742848,0.003 z m 17.3782833,1.86911 v 1.27984 l 1.467141,-1.27984 z m 3.733771,2.04757 -1.866895,1.61256 v 0.007 l 1.866895,-1.61256 z m -11.84564,1.1464 -1.184664,1.02333 v 1.32099 h 1.104637 l 0.08003,-0.0699 z m -6.8306742,0.28379 v 2.49784 l -0.568847,0.01 v -2.01196 z m 23.2073012,0.58339 -1.964069,1.69646 v 1.25816 h -0.04243 v -1.22156 l -1.809871,1.56331 v 1.79427 l 1.118904,-0.96662 v -0.4824 l 1.340473,-0.0237 v -0.3803 h 0.820554 l 3.06126,-2.67116 v -0.13607 l -0.747992,0.0127 v 0.66832 l -1.797231,1.56815 -0.712996,0.0126 V 287.389 l 0.621972,-0.53711 h -1.102384 l 1.691631,-1.424 0.180107,-0.003 v -0.46323 z m 0.657931,0.46325 v 0.76252 l 0.861687,-0.74408 v -0.034 z m 1.866892,-0.0328 0.04244,-6.2e-4 v 0.0994 l 0.558464,-0.48721 v -0.0421 h -0.600907 z m -3.881814,3.18753 v 0.2206 h 0.131842 l 0.260779,-0.22772 z m -5.040891,-3.54709 v 0.8053 h 0.25073 l -0.25073,0.21866 v 1.73304 0.4098 h 1.468766 l -3.099823,2.70485 0.493696,-0.008 1.137361,-0.99252 v 0.58438 l -0.458698,0.39615 1.750908,-0.0308 v 0.31259 l 0.720458,-0.62229 v -1.79424 l -0.145773,0.12599 V 287.916 H 24.99581 l 1.214139,-1.02202 v -1.86164 z m -12.619536,0.78587 -0.02366,3.4e-4 v 0.90734 l -0.203756,0.17591 h 0.203756 v 0.2491 l 0.02366,-0.0208 z m -3.8727437,1.05215 -0.3171395,0.27373 v -0.26792 z m 25.9028437,0.43989 v 0.60835 l -0.324588,0.28054 h 0.437637 v -0.0617 -0.82699 z m -26.5218967,0.0952 -0.026904,0.0231 v -0.0227 z m 25.7904237,0.2961 -0.478138,0.41332 v 0.0224 h 0.478138 z m -3.111797,0.68867 v 0.0654 l 0.04244,-0.0371 v -0.0286 z m 3.956319,0.11046 -0.803057,0.0139 -0.826377,0.71363 v 3.18006 l -0.203757,0.17591 h 0.203757 v 0.6009 h 0.87466 v 0.19956 l 0.754774,-0.0133 z m -13.049412,0.74907 v 1.68739 l 0.909954,-0.0159 v -1.08746 l 0.09719,-0.084 v -0.50018 z m 0,1.68739 -1.866892,0.0327 v 0.18788 h -0.399422 l 0.219315,-0.18464 0.180107,-0.003 v -0.20799 l -1.076774,0.93942 -0.229367,0.005 -2.140279,1.80173 h -0.273087 v 0.0582 h -2.046999 v -0.0731 l -0.0045,0.004 v 3.50335 h 3.030825 l 5.613932,-4.89853 v -0.4221 l -0.09718,0.0849 v -0.60543 h -0.909952 z m 1.575995,-1.68739 v 0.008 l 0.01,-0.008 z m 0.02785,1.90798 -0.02785,0.0242 v 0.42209 l 0.511492,-0.44637 z m -2.560764,0.28863 v 2.34432 h -0.560423 v -1.86038 z m 3.264703,0.093 -0.731785,0.632 v 0.43502 l -0.514114,0.009 L 16.803272,297 h 0.837074 0.09038 3.086538 v -0.25009 h -0.371241 v -0.0357 l 0.371241,-0.32394 v -0.59441 l 1.007146,-0.86975 v -0.4626 l 0.568849,-0.4914 v 0.46258 l 0.731785,-0.632 z m 7.245321,1.0463 -0.986412,0.85194 v 0.59444 l -0.04245,0.0371 v -0.27826 H 27.47462 v 1.29607 l -0.550055,0.4752 v 1.43762 h 3.149698 1.073225 l 1.818942,-1.58727 h -1.378058 v -0.60748 h 0.92939 v -1.23937 h 0.594125 v -0.18076 l -1.866893,0.0327 v 0.1879 h -0.399422 l 0.219316,-0.18466 0.180107,-0.003 v -0.41306 H 30.370353 Z M 7.7189197,293.30635 6.26281,294.53211 v 1.87657 l 1.4561097,-1.27048 z m 4.0046023,0.0524 -0.246519,3.3e-4 v 0.43601 l 0.246519,-0.005 z m 5.709499,0.18462 v 0.1474 l -0.174285,0.003 z m 14.15536,0.0224 h 0.529969 l -0.529974,0.44601 z m 1.866893,0.0399 v 0.69774 l 0.411397,-0.35536 v -0.34238 z m -10.71833,0.0634 v 0.12181 h -0.140911 z m 2.898323,0.12181 v 0.0676 l 0.07742,-0.0676 z m 3.706237,0.60088 h 0.04245 v 1.10755 h -0.04245 z M 7.7189197,295.4572 6.26281,296.71471 v 0.28506 h 1.4561097 z m 3.0292013,0.13931 -1.0712847,0.92514 v 0.47812 h 1.0712847 z m 14.70704,0.41688 v 0.98638 h 0.900564 v -0.98638 z m -1.866894,0.23875 -0.56042,0.48395 v 0.26368 h 0.56042 z"
       id="use7390-6"
       inkscape:connector-curvature="0" />
  </g>
  <g
     inkscape:groupmode="layer"
     id="layer2"
     inkscape:label="Layer 2"
     style="display:none"
     transform="translate(0,-263.13333)">
    <path
       style="color:#000000;clip-rule:nonzero;display:inline;overflow:visible;visibility:visible;opacity:1;isolation:auto;mix-blend-mode:normal;color-interpolation:sRGB;color-interpolation-filters:linearRGB;solid-color:#000000;solid-opacity:1;fill:#3df79e;fill-opacity:0.82517479;fill-rule:nonzero;stroke:none;stroke-width:0.1;stroke-linecap:butt;stroke-linejoin:miter;stroke-miterlimit:5.5999999;stroke-dasharray:none;stroke-dashoffset:0;stroke-opacity:1;color-rendering:auto;image-rendering:auto;shape-rendering:auto;text-rendering:auto;enable-background:accumulate"
       d="M 275.59764,40.532451 V 246.29038 H 439.83567 V 40.532451 Z m 56.18779,59.596089 h 54.02511 v 54.02512 h -54.02511 z"
       id="rect7745"
       inkscape:connector-curvature="0"
       sodipodi:nodetypes="cccccccccc" />
  </g>
</svg>
