<?xml version="1.0" encoding="UTF-8" standalone="no"?>
<!-- Created with Inkscape (http://www.inkscape.org/) -->

<svg
   xmlns:dc="http://purl.org/dc/elements/1.1/"
   xmlns:cc="http://creativecommons.org/ns#"
   xmlns:rdf="http://www.w3.org/1999/02/22-rdf-syntax-ns#"
   xmlns:svg="http://www.w3.org/2000/svg"
   xmlns="http://www.w3.org/2000/svg"
   xmlns:sodipodi="http://sodipodi.sourceforge.net/DTD/sodipodi-0.dtd"
   xmlns:inkscape="http://www.inkscape.org/namespaces/inkscape"
   width="128"
   height="128"
   viewBox="0 0 33.866667 33.866667"
   version="1.1"
   id="svg8"
   inkscape:version="0.92.1 unknown"
   sodipodi:docname="background.svg">
  <defs
     id="defs2" />
  <sodipodi:namedview
     id="base"
     pagecolor="#ffffff"
     bordercolor="#666666"
     borderopacity="1.0"
     inkscape:pageopacity="0.0"
     inkscape:pageshadow="2"
     inkscape:zoom="8"
     inkscape:cx="64.468992"
     inkscape:cy="95.452307"
     inkscape:document-units="mm"
     inkscape:current-layer="layer1"
     showgrid="true"
     showguides="true"
     inkscape:window-width="1366"
     inkscape:window-height="715"
     inkscape:window-x="0"
     inkscape:window-y="0"
     inkscape:window-maximized="1"
     inkscape:guide-bbox="true"
     units="px"
     width="256px">
    <sodipodi:guide
       position="275.59764,240.14301"
       orientation="1,0"
       id="guide7796"
       inkscape:locked="false" />
    <sodipodi:guide
       position="101.41335,256.46755"
       orientation="0,1"
       id="guide7798"
       inkscape:locked="false" />
    <sodipodi:guide
       position="439.83567,254.33439"
       orientation="1,0"
       id="guide7800"
       inkscape:locked="false" />
    <sodipodi:guide
       position="151.66208,80.955545"
       orientation="0,1"
       id="guide7802"
       inkscape:locked="false" />
    <inkscape:grid
       type="xygrid"
       id="grid7847" />
    <sodipodi:guide
       position="0,33.866667"
       orientation="0,1"
       id="guide7849"
       inkscape:locked="false" />
    <sodipodi:guide
       position="0,33.866667"
       orientation="1,0"
       id="guide7853"
       inkscape:locked="false" />
    <sodipodi:guide
       position="33.866667,0"
       orientation="0,1"
       id="guide7855"
       inkscape:locked="false" />
    <sodipodi:guide
       position="33.866667,0"
       orientation="1,0"
       id="guide7857"
       inkscape:locked="false" />
  </sodipodi:namedview>
  <metadata
     id="metadata5">
    <rdf:RDF>
      <cc:Work
         rdf:about="">
        <dc:format>image/svg+xml</dc:format>
        <dc:type
           rdf:resource="http://purl.org/dc/dcmitype/StillImage" />
        <dc:title />
      </cc:Work>
    </rdf:RDF>
  </metadata>
  <g
     inkscape:label="Layer 1"
     inkscape:groupmode="layer"
     id="layer1"
     style="display:inline"
     transform="translate(0,-263.13333)">
    <path
       style="color:#000000;clip-rule:nonzero;display:inline;overflow:visible;visibility:visible;opacity:1;isolation:auto;mix-blend-mode:normal;color-interpolation:sRGB;color-interpolation-filters:linearRGB;solid-color:#000000;solid-opacity:1;fill:#dcd0c0;fill-opacity:0.39160839;fill-rule:nonzero;stroke:none;stroke-width:0.06268603;stroke-linecap:butt;stroke-linejoin:miter;stroke-miterlimit:5.5999999;stroke-dasharray:0.06268605, 0.50148820999999999;stroke-dashoffset:0;stroke-opacity:1;color-rendering:auto;image-rendering:auto;shape-rendering:auto;text-rendering:auto;enable-background:accumulate"
       d="m 6.2628063,263.13402 v 1.44443 H 7.718916 v -1.44443 z m 3.4140263,0 v 1.44443 h 0.7722904 l 0.298994,-0.25851 v -1.18592 z m 3.5024804,0 v 0.25235 l -1.296736,1.1315 0.969229,-0.017 0.327507,-0.28571 v 0.36279 H 12.61501 v 0.29188 l 0.318118,-0.006 v -0.14641 h 0.246517 v -0.13995 h 1.374157 l 1.655041,-1.44409 z m 4.461028,0 -0.542608,0.46875 v 0.0837 l 0.632984,-0.55232 z m 4.591577,0 v 3.86617 l 1.866894,-0.0331 v -3.83311 z m 7.842348,0 -1.444135,1.24747 h 2.714003 v -1.24747 z m 3.136743,0 v 0.37609 l -0.937485,0.80983 v 1.88108 h 0.992235 v 0.0967 l 0.600908,-0.51892 v -2.64462 z m -32.59940368,0.62584 v 0.81859 H 1.6022156 l 0.947868,-0.81859 z m 18.79584868,0.69775 -2.309721,1.99513 v 1.41332 h 0.316177 v -0.27341 l 1.993544,-1.7217 z m -6.227809,0.3152 -0.105935,0.0895 -0.140582,0.003 v 1.03043 l 0.246517,-0.005 z m -1.590573,0.002 -1.448017,1.26367 v 3.12662 l 1.866877,-1.61256 v -2.31452 l 0.154201,-0.13442 v -0.32879 z m 3.287061,0.74732 -0.203758,0.17589 v 2.40295 l -0.180122,0.15549 v 1.86002 l 0.738603,-0.6378 v -1.793 h -0.354723 z m -1.943005,0.59961 v 2.15578 l 0.246517,-0.21284 v -1.94294 z m 9.29879,1.10073 v 0.0427 h 1.866894 v -0.0427 z m 1.866894,0.46289 -1.866894,3.3e-4 v 0.29932 l 0.203757,-0.004 v 1.61384 l -0.203757,0.17784 v 0.61741 l 1.652105,-0.029 0.214789,-0.18562 z m -6.684902,0.38418 -0.316177,0.006 v 0.38839 l 0.316177,-0.27598 z m -9.7830984,0.15902 -4.3567199,3.80171 H 0 v 5.89397 l 0.84873417,-0.73305 v -2.84998 l 2.60742103,-2.25276 v 0.4493 h 1.8668766 v -1.10754 H 4.951806 v -0.0353 l 0.3712258,-0.3239 v -0.59444 l 2.3077798,-1.99317 z m 9.4669214,0.31847 v 1.10753 h 0.316177 v -1.10753 z m 7.616232,0 v 1.95007 l -0.615153,0.53678 v 0.34724 l -1.437999,1.24197 h 1.682241 v -0.32879 l 0.560422,-0.48396 v 0.81275 h 1.306473 v -0.23063 l 0.56042,-0.48397 v -1.71069 l 0.09718,-0.0839 v -1.12406 l -0.341439,0.29479 v -0.73761 z m 3.175621,0 -0.494326,0.42694 h 0.792043 l 0.475867,-0.41107 h 1.10011 v -0.0159 z m -15.26421,1.32197 -0.560421,0.48397 v 1.86036 l 0.560421,-0.48398 z m 9.606542,0.52153 -0.180107,0.003 -3.911951,3.29343 h 1.893778 l 0.206031,-0.17783 v -0.48234 l 1.340472,-0.0237 v -0.3803 h 0.651777 v -0.54585 l -0.02818,6.3e-4 v -0.26498 l 0.02818,-0.0242 z m -0.651777,2.61255 v 0.2206 h 0.526403 v 0.46321 h 0.04244 v -0.46321 h 1.738933 v 1.17426 l 0.455134,-0.39325 v -1.05022 l -2.109197,0.037 -0.002,0.002 v -0.002 l -0.08292,9.2e-4 v -0.17914 h -0.04245 v 0.1798 z m -13.4860849,-2.06995 -0.1065812,0.092 v 0.44899 h 0.1065812 z m 2.1040059,1.0327 -0.2371295,0.20473 v 0.0427 h 0.2371295 z m 22.312906,0.0645 v 5.75081 l 0.337557,-0.29447 v 1.79945 l 1.018142,-0.0181 v -1.27848 h -0.07547 l 0.07547,-0.065 v -5.89398 z m 0.337557,7.25579 -0.180123,0.003 -0.157434,0.13248 v 0.0521 h 0.337557 z m -6.638576,-6.364 -1.306473,0.023 v 1.20955 h -0.560422 v 0.0145 l -0.219298,0.18465 0.219298,-0.004 v 1.99932 h -0.244242 v 0.92839 h -1.381624 l 1.07485,-0.92839 h -0.07875 l -1.846475,1.59507 v -0.3301 l -0.286687,0.24748 v 0.59442 l -0.04243,0.037 v -0.27836 h -1.86689 v 0.83897 h 0.112403 l -0.112403,0.0946 v 0.36247 l -0.690653,0.59636 1.202477,-0.021 v -1.0324 h 0.937504 v 0.7376 l 0.417565,-0.36053 v -0.61514 h 0.04243 v 0.57821 l 0.393915,-0.34014 h 0.07548 v 0.99968 l 0.04245,-6.2e-4 v -0.99904 h 2.265337 v 0.17526 h 0.356648 v -1.23937 h 0.9375 v 0.61903 l 1.216079,-1.06121 v -1.07287 l -0.469398,0.40557 v -0.53094 h -0.188199 z m -6.56374,1.09975 -1.944318,0.034 -0.04374,0.0371 v 0.19533 h 1.67997 z m -7.581254,0.8973 -0.0045,0.004 h 0.0045 z m 0.655657,1.25103 v 0.98412 l 1.139302,-0.98412 z m 18.623522,0.29447 -2.266001,1.9572 v 2.05568 l 2.266001,-1.95721 v -1.11076 h 0.05474 v -0.83929 l -0.05474,0.0459 z m -25.9640798,0.66924 -1.2802332,1.07773 0.7113863,-0.0123 v 3.16548 H 6.072317 v -3.37507 H 5.3800542 Z m 6.8886578,0.82379 -0.140599,0.12146 h -0.07159 v 0.13573 H 11.72351 v 0.21379 l -4.2112613,3.63713 0.6886971,-0.0119 -1.1998909,1.01035 v -0.55651 l -0.9287444,0.80207 v -1.58211 l -1.2611097,1.0894 v 1.37381 l 0.5688468,-0.01 v 0.23064 H 4.8112055 v -0.2206 l -1.6236112,0.0287 -2.57599082,2.22476 v 0.86655 H 0 v 0.82699 h 0.36444214 l 0.24716318,-0.20837 v 0.0973 l -0.1286072,0.11109 h 0.1286072 2.58539498 0.8344703 l 1.0664241,-0.89794 v 2.75086 l 0.9744223,-0.82053 v -1.03239 h 0.1904893 0.239384 0.7026293 v -0.63458 h 0.8477723 l 1.5766231,-1.32747 v 1.32747 h 0.2037579 v -2.34431 l -1.7389168,1.50208 v -1.59505 h 1.8668764 v 0.7376 l 0.8539265,-0.7376 h 0.681249 v -1.25524 l 0.568847,-0.49627 v 1.56071 l 0.560421,-0.47197 V 284.002 h 0.476845 l 0.07742,-0.0652 v 0.065 h 1.312608 v 0.73762 l 0.853926,-0.73762 h 0.885007 v 0.0126 l 1.344039,-1.16098 v 0.71396 l 2.390709,-2.08615 v -0.58049 h -0.712679 v -0.54941 h -0.55523 l -0.09978,0.0863 h -1.549424 v 0.55002 h -0.04245 v -0.55002 h -0.109484 l -1.666037,1.40263 v -2.56103 h -0.09137 v 1.29607 l -1.072579,0.92644 h -1.798208 v -0.60089 h -0.203753 l 0.203758,-0.1759 v -0.47812 l 1.108852,-0.9676 H 12.268693 Z M 0,277.98933 v 1.27857 l 0.2568828,-0.005 0.1772039,-0.1545 v 0.32361 l -0.15419913,0.13314 v 2.54708 l 2.66442653,-2.30136 v -0.75769 H 0.84873417 v -1.06412 z m 23.784573,3.4e-4 h 0.529971 l -0.529971,0.44606 z m -5.912609,0.22515 -0.21381,0.18462 v 0.034 l 0.250747,-0.21866 z m -12.7740693,0.81663 v 0.14738 l -0.1742848,0.003 z m 17.3782833,1.86911 v 1.27984 l 1.467141,-1.27984 z m 3.733771,2.04757 -1.866895,1.61256 v 0.007 l 1.866895,-1.61256 z m -11.84564,1.1464 -1.184664,1.02333 v 1.32099 h 1.104637 l 0.08003,-0.0699 z m -6.8306742,0.28379 v 2.49784 l -0.568847,0.01 v -2.01196 z m 23.2073012,0.58339 -1.964069,1.69646 v 1.25816 h -0.04243 v -1.22156 l -1.809871,1.56331 v 1.79427 l 1.118904,-0.96662 v -0.4824 l 1.340473,-0.0237 v -0.3803 h 0.820554 l 3.06126,-2.67116 v -0.13607 l -0.747992,0.0127 v 0.66832 l -1.797231,1.56815 -0.712996,0.0126 V 287.389 l 0.621972,-0.53711 h -1.102384 l 1.691631,-1.424 0.180107,-0.003 v -0.46323 z m 0.657931,0.46325 v 0.76252 l 0.861687,-0.74408 v -0.034 z m 1.866892,-0.0328 0.04244,-6.2e-4 v 0.0994 l 0.558464,-0.48721 v -0.0421 h -0.600907 z m -3.881814,3.18753 v 0.2206 h 0.131842 l 0.260779,-0.22772 z m -5.040891,-3.54709 v 0.8053 h 0.25073 l -0.25073,0.21866 v 1.73304 0.4098 h 1.468766 l -3.099823,2.70485 0.493696,-0.008 1.137361,-0.99252 v 0.58438 l -0.458698,0.39615 1.750908,-0.0308 v 0.31259 l 0.720458,-0.62229 v -1.79424 l -0.145773,0.12599 V 287.916 H 24.99581 l 1.214139,-1.02202 v -1.86164 z m -12.619536,0.78587 -0.02366,3.4e-4 v 0.90734 l -0.203756,0.17591 h 0.203756 v 0.2491 l 0.02366,-0.0208 z m -3.8727437,1.05215 -0.3171395,0.27373 v -0.26792 z m 25.9028437,0.43989 v 0.60835 l -0.324588,0.28054 h 0.437637 v -0.0617 -0.82699 z m -26.5218967,0.0952 -0.026904,0.0231 v -0.0227 z m 25.7904237,0.2961 -0.478138,0.41332 v 0.0224 h 0.478138 z m -3.111797,0.68867 v 0.0654 l 0.04244,-0.0371 v -0.0286 z m 3.956319,0.11046 -0.803057,0.0139 -0.826377,0.71363 v 3.18006 l -0.203757,0.17591 h 0.203757 v 0.6009 h 0.87466 v 0.19956 l 0.754774,-0.0133 z m -13.049412,0.74907 v 1.68739 l 0.909954,-0.0159 v -1.08746 l 0.09719,-0.084 v -0.50018 z m 0,1.68739 -1.866892,0.0327 v 0.18788 h -0.399422 l 0.219315,-0.18464 0.180107,-0.003 v -0.20799 l -1.076774,0.93942 -0.229367,0.005 -2.140279,1.80173 h -0.273087 v 0.0582 h -2.046999 v -0.0731 l -0.0045,0.004 v 3.50335 h 3.030825 l 5.613932,-4.89853 v -0.4221 l -0.09718,0.0849 v -0.60543 h -0.909952 z m 1.575995,-1.68739 v 0.008 l 0.01,-0.008 z m 0.02785,1.90798 -0.02785,0.0242 v 0.42209 l 0.511492,-0.44637 z m -2.560764,0.28863 v 2.34432 h -0.560423 v -1.86038 z m 3.264703,0.093 -0.731785,0.632 v 0.43502 l -0.514114,0.009 L 16.803272,297 h 0.837074 0.09038 3.086538 v -0.25009 h -0.371241 v -0.0357 l 0.371241,-0.32394 v -0.59441 l 1.007146,-0.86975 v -0.4626 l 0.568849,-0.4914 v 0.46258 l 0.731785,-0.632 z m 7.245321,1.0463 -0.986412,0.85194 v 0.59444 l -0.04245,0.0371 v -0.27826 H 27.47462 v 1.29607 l -0.550055,0.4752 v 1.43762 h 3.149698 1.073225 l 1.818942,-1.58727 h -1.378058 v -0.60748 h 0.92939 v -1.23937 h 0.594125 v -0.18076 l -1.866893,0.0327 v 0.1879 h -0.399422 l 0.219316,-0.18466 0.180107,-0.003 v -0.41306 H 30.370353 Z M 7.7189197,293.30635 6.26281,294.53211 v 1.87657 l 1.4561097,-1.27048 z m 4.0046023,0.0524 -0.246519,3.3e-4 v 0.43601 l 0.246519,-0.005 z m 5.709499,0.18462 v 0.1474 l -0.174285,0.003 z m 14.15536,0.0224 h 0.529969 l -0.529974,0.44601 z m 1.866893,0.0399 v 0.69774 l 0.411397,-0.35536 v -0.34238 z m -10.71833,0.0634 v 0.12181 h -0.140911 z m 2.898323,0.12181 v 0.0676 l 0.07742,-0.0676 z m 3.706237,0.60088 h 0.04245 v 1.10755 h -0.04245 z M 7.7189197,295.4572 6.26281,296.71471 v 0.28506 h 1.4561097 z m 3.0292013,0.13931 -1.0712847,0.92514 v 0.47812 h 1.0712847 z m 14.70704,0.41688 v 0.98638 h 0.900564 v -0.98638 z m -1.866894,0.23875 -0.56042,0.48395 v 0.26368 h 0.56042 z"
       id="use7390-6"
       inkscape:connector-curvature="0" />
  </g>
  <g
     inkscape:groupmode="layer"
     id="layer2"
     inkscape:label="Layer 2"
     style="display:none"
     transform="translate(0,-263.13333)">
    <path
       style="color:#000000;clip-rule:nonzero;display:inline;overflow:visible;visibility:visible;opacity:1;isolation:auto;mix-blend-mode:normal;color-interpolation:sRGB;color-interpolation-filters:linearRGB;solid-color:#000000;solid-opacity:1;fill:#3df79e;fill-opacity:0.82517479;fill-rule:nonzero;stroke:none;stroke-width:0.1;stroke-linecap:butt;stroke-linejoin:miter;stroke-miterlimit:5.5999999;stroke-dasharray:none;stroke-dashoffset:0;stroke-opacity:1;color-rendering:auto;image-rendering:auto;shape-rendering:auto;text-rendering:auto;enable-background:accumulate"
       d="M 275.59764,40.532451 V 246.29038 H 439.83567 V 40.532451 Z m 56.18779,59.596089 h 54.02511 v 54.02512 h -54.02511 z"
       id="rect7745"
       inkscape:connector-curvature="0"
       sodipodi:nodetypes="cccccccccc" />
  </g>
</svg>
